<svg data-v-d3f97b9e="" xmlns="http://www.w3.org/2000/svg" viewBox="0 0 466 90"><!----><!----><!----><g data-v-d3f97b9e="" id="bd91b07e-bdd9-407d-8a16-b87213d36314" fill="black" transform="matrix(4.535147222295708,0,0,4.535147222295708,129.48253859591898,2.3015872785689524)"><path d="M1.51 13.02L1.51 3.78L4.80 3.78L4.80 3.78Q6.40 3.78 7.17 4.44L7.17 4.44L7.17 4.44Q7.95 5.11 7.95 6.33L7.95 6.33L7.95 6.33Q7.95 7.06 7.54 7.62L7.54 7.62L7.54 7.62Q7.13 8.18 6.40 8.32L6.40 8.32L6.40 8.33L6.40 8.33Q7.21 8.48 7.70 9.07L7.70 9.07L7.70 9.07Q8.19 9.66 8.19 10.43L8.19 10.43L8.19 10.43Q8.19 11.62 7.29 12.32L7.29 12.32L7.29 12.32Q6.40 13.02 4.79 13.02L4.79 13.02L1.51 13.02ZM2.63 7.84L4.82 7.84L4.82 7.84Q5.81 7.84 6.29 7.47L6.29 7.47L6.29 7.47Q6.78 7.10 6.78 6.33L6.78 6.33L6.78 6.33Q6.78 4.83 4.82 4.83L4.82 4.83L2.63 4.83L2.63 7.84ZM2.63 11.97L5.05 11.97L5.05 11.97Q6.03 11.97 6.52 11.57L6.52 11.57L6.52 11.57Q7.01 11.17 7.01 10.43L7.01 10.43L7.01 10.43Q7.01 9.69 6.52 9.29L6.52 9.29L6.52 9.29Q6.03 8.89 5.05 8.89L5.05 8.89L2.63 8.89L2.63 11.97ZM15.39 6.02L16.51 6.02L16.51 13.02L15.53 13.02L15.46 11.96L15.46 11.96Q14.76 13.16 12.95 13.16L12.95 13.16L12.95 13.16Q11.82 13.16 11.09 12.53L11.09 12.53L11.09 12.53Q10.37 11.90 10.37 10.60L10.37 10.60L10.37 6.02L11.49 6.02L11.49 10.30L11.49 10.30Q11.49 11.33 11.91 11.75L11.91 11.75L11.91 11.75Q12.33 12.18 13.15 12.18L13.15 12.18L13.15 12.18Q14.11 12.18 14.75 11.59L14.75 11.59L14.75 11.59Q15.39 11.00 15.39 9.83L15.39 9.83L15.39 6.02ZM21.49 13.16L21.49 13.16Q20.48 13.16 19.67 12.76L19.67 12.76L19.67 12.76Q18.86 12.36 18.48 11.58L18.48 11.58L19.39 10.95L19.39 10.95Q19.63 11.56 20.22 11.87L20.22 11.87L20.22 11.87Q20.80 12.18 21.60 12.18L21.60 12.18L21.60 12.18Q22.43 12.18 22.86 11.89L22.86 11.89L22.86 11.89Q23.30 11.59 23.30 11.14L23.30 11.14L23.30 11.14Q23.30 10.74 22.89 10.49L22.89 10.49L22.89 10.49Q22.48 10.25 21.46 10.07L21.46 10.07L21.46 10.07Q20.45 9.88 19.87 9.63L19.87 9.63L19.87 9.63Q19.28 9.37 19.01 8.97L19.01 8.97L19.01 8.97Q18.75 8.57 18.75 7.98L18.75 7.98L18.75 7.98Q18.75 7.41 19.08 6.93L19.08 6.93L19.08 6.93Q19.42 6.45 20.05 6.17L20.05 6.17L20.05 6.17Q20.68 5.88 21.50 5.88L21.50 5.88L21.50 5.88Q22.62 5.88 23.30 6.29L23.30 6.29L23.30 6.29Q23.98 6.71 24.28 7.56L24.28 7.56L23.32 8.12L23.32 8.12Q23.10 7.45 22.64 7.15L22.64 7.15L22.64 7.15Q22.19 6.86 21.50 6.86L21.50 6.86L21.50 6.86Q20.82 6.86 20.34 7.17L20.34 7.17L20.34 7.17Q19.87 7.48 19.87 7.88L19.87 7.88L19.87 7.88Q19.87 8.34 20.28 8.60L20.28 8.60L20.28 8.60Q20.69 8.85 21.76 9.03L21.76 9.03L21.76 9.03Q23.21 9.27 23.81 9.74L23.81 9.74L23.81 9.74Q24.42 10.22 24.42 11.09L24.42 11.09L24.42 11.09Q24.42 11.69 24.06 12.16L24.06 12.16L24.06 12.16Q23.70 12.63 23.04 12.89L23.04 12.89L23.04 12.89Q22.37 13.16 21.49 13.16L21.49 13.16ZM32.02 6.02L28.73 14.20L28.73 14.20Q28.32 15.20 27.82 15.62L27.82 15.62L27.82 15.62Q27.31 16.03 26.52 16.03L26.52 16.03L26.52 16.03Q25.98 16.03 25.63 15.89L25.63 15.89L25.63 15.89Q25.27 15.75 24.98 15.44L24.98 15.44L25.37 14.49L25.37 14.49Q25.77 15.05 26.50 15.05L26.50 15.05L26.50 15.05Q26.91 15.05 27.22 14.80L27.22 14.80L27.22 14.80Q27.54 14.56 27.78 13.92L27.78 13.92L28.14 13.01L25.21 6.02L26.49 6.02L28.24 10.58L28.67 11.83L29.18 10.44L30.81 6.02L32.02 6.02ZM41.22 10.65L41.22 10.65Q40.78 11.83 39.79 12.49L39.79 12.49L39.79 12.49Q38.79 13.16 37.49 13.16L37.49 13.16L37.49 13.16Q36.19 13.16 35.22 12.58L35.22 12.58L35.22 12.58Q34.26 12.00 33.73 10.93L33.73 10.93L33.73 10.93Q33.21 9.86 33.21 8.40L33.21 8.40L33.21 8.40Q33.21 6.96 33.73 5.88L33.73 5.88L33.73 5.88Q34.26 4.80 35.22 4.22L35.22 4.22L35.22 4.22Q36.19 3.64 37.46 3.64L37.46 3.64L37.46 3.64Q38.79 3.64 39.70 4.19L39.70 4.19L39.70 4.19Q40.60 4.73 41.05 5.80L41.05 5.80L39.94 6.31L39.94 6.31Q39.63 5.50 39.05 5.10L39.05 5.10L39.05 5.10Q38.46 4.69 37.55 4.69L37.55 4.69L37.55 4.69Q36.60 4.69 35.88 5.13L35.88 5.13L35.88 5.13Q35.17 5.57 34.78 6.41L34.78 6.41L34.78 6.41Q34.38 7.25 34.38 8.40L34.38 8.40L34.38 8.40Q34.38 10.14 35.22 11.12L35.22 11.12L35.22 11.12Q36.05 12.11 37.49 12.11L37.49 12.11L37.49 12.11Q38.43 12.11 39.12 11.63L39.12 11.63L39.12 11.63Q39.80 11.16 40.10 10.23L40.10 10.23L41.22 10.65ZM46.56 5.88L46.56 5.88Q47.75 5.88 48.52 6.57L48.52 6.57L48.52 6.57Q49.29 7.25 49.29 8.54L49.29 8.54L49.29 13.02L48.17 13.02L48.17 8.93L48.17 8.93Q48.17 7.84 47.70 7.35L47.70 7.35L47.70 7.35Q47.24 6.86 46.45 6.86L46.45 6.86L46.45 6.86Q45.91 6.86 45.41 7.11L45.41 7.11L45.41 7.11Q44.91 7.36 44.60 7.92L44.60 7.92L44.60 7.92Q44.28 8.47 44.28 9.31L44.28 9.31L44.28 13.02L43.16 13.02L43.16 2.80L44.28 2.80L44.28 7.07L44.28 7.07Q44.63 6.47 45.23 6.17L45.23 6.17L45.23 6.17Q45.82 5.88 46.56 5.88L46.56 5.88ZM57.83 9.16L57.83 9.16Q57.83 9.55 57.78 9.94L57.78 9.94L52.50 9.94L52.50 9.94Q52.60 11.00 53.21 11.59L53.21 11.59L53.21 11.59Q53.82 12.18 54.78 12.18L54.78 12.18L54.78 12.18Q55.55 12.18 56.06 11.91L56.06 11.91L56.06 11.91Q56.57 11.65 56.76 11.14L56.76 11.14L57.69 11.63L57.69 11.63Q57.27 12.38 56.57 12.77L56.57 12.77L56.57 12.77Q55.87 13.16 54.78 13.16L54.78 13.16L54.78 13.16Q53.20 13.16 52.30 12.19L52.30 12.19L52.30 12.19Q51.39 11.23 51.39 9.52L51.39 9.52L51.39 9.52Q51.39 7.81 52.25 6.85L52.25 6.85L52.25 6.85Q53.12 5.88 54.70 5.88L54.70 5.88L54.70 5.88Q55.68 5.88 56.39 6.31L56.39 6.31L56.39 6.31Q57.11 6.75 57.47 7.49L57.47 7.49L57.47 7.49Q57.83 8.23 57.83 9.16L57.83 9.16ZM54.70 6.86L54.70 6.86Q53.77 6.86 53.21 7.41L53.21 7.41L53.21 7.41Q52.64 7.95 52.51 8.95L52.51 8.95L56.76 8.95L56.76 8.95Q56.64 7.97 56.11 7.41L56.11 7.41L56.11 7.41Q55.58 6.86 54.70 6.86L54.70 6.86ZM62.92 5.88L62.92 5.88Q63.97 5.88 64.69 6.36L64.69 6.36L64.69 6.36Q65.41 6.85 65.81 7.74L65.81 7.74L64.75 8.25L64.75 8.25Q64.30 6.86 62.89 6.86L62.89 6.86L62.89 6.86Q61.84 6.86 61.24 7.57L61.24 7.57L61.24 7.57Q60.65 8.27 60.65 9.52L60.65 9.52L60.65 9.52Q60.65 10.77 61.24 11.47L61.24 11.47L61.24 11.47Q61.84 12.18 62.89 12.18L62.89 12.18L62.89 12.18Q63.70 12.18 64.20 11.81L64.20 11.81L64.20 11.81Q64.69 11.44 64.85 10.74L64.85 10.74L65.88 11.10L65.88 11.10Q65.52 12.08 64.76 12.62L64.76 12.62L64.76 12.62Q64.01 13.16 62.92 13.16L62.92 13.16L62.92 13.16Q61.33 13.16 60.43 12.19L60.43 12.19L60.43 12.19Q59.53 11.23 59.53 9.52L59.53 9.52L59.53 9.52Q59.53 7.81 60.43 6.85L60.43 6.85L60.43 6.85Q61.33 5.88 62.92 5.88L62.92 5.88ZM72.81 13.02L70.46 9.56L68.98 11.05L68.98 13.02L67.86 13.02L67.86 2.80L68.98 2.80L68.98 9.65L72.60 6.02L74.00 6.02L71.27 8.75L74.17 13.02L72.81 13.02Z"></path></g><!----><g data-v-d3f97b9e="" id="3bd5e750-bcc1-4463-8f9d-63197f017532" transform="matrix(1.1862395774600725,0,0,1.1862395774600725,-0.27444554248165076,-19.11802240337697)" stroke="none" fill="black"><path d="M49.549 32.34c3.905 0 7.088-3.175 7.088-7.086 0-3.923-3.183-7.098-7.088-7.098a7.099 7.099 0 0 0-7.104 7.098c0 3.911 3.18 7.086 7.104 7.086zM72.376 71.68l12.562.002c.179.009 4.495.076 6.532-3.812 2.457-4.688 3.338-13.202 2.146-20.713a2.26 2.26 0 0 1 4.464-.709c1.126 7.087.757 17.104-2.605 23.52-3.113 5.943-9.298 6.236-10.438 6.236-.102 0-.163-.002-.18-.003h-12.48a2.261 2.261 0 0 1-.001-4.521zM74.458 30.926c-3.904 0-7.088-3.175-7.088-7.086 0-3.923 3.184-7.098 7.088-7.098a7.098 7.098 0 0 1 7.104 7.098c0 3.911-3.179 7.086-7.104 7.086zM26.862 71.68l-12.562.002c-.178.009-4.495.076-6.531-3.812-2.458-4.688-3.339-13.202-2.147-20.713a2.26 2.26 0 1 0-4.464-.709C.033 53.535.402 63.552 3.764 69.968c3.113 5.943 9.298 6.236 10.438 6.236.102 0 .164-.002.18-.003h12.48a2.26 2.26 0 0 0 0-4.521zM24.78 30.926c3.905 0 7.088-3.175 7.088-7.086 0-3.923-3.183-7.098-7.088-7.098a7.099 7.099 0 0 0-7.104 7.098c0 3.911 3.18 7.086 7.104 7.086z"></path><path d="M76.638 32.498s-2.994 1.196-3.066 8.3c-.121 1.019-.235 2.909-.31 5.264H59.471a3.075 3.075 0 0 0-3.074 3.079 3.074 3.074 0 0 0 2.505 3.022H40.338a3.074 3.074 0 0 0 2.504-3.022 3.074 3.074 0 0 0-3.074-3.079H25.977c-.073-2.355-.188-4.245-.309-5.264-.072-7.104-3.066-8.3-3.066-8.3C8.895 26.609 9.045 60.746 12.8 65.488c0 0 1.258 2.238 4.521 2.238H33.45v20.442c0 2.327 1.486 4.443 4.27 4.443 2.479 0 3.945-1.932 3.945-4.249V69.287l14.402 8.28c.479.274.988.466 1.507.576v10.22c0 2.317 1.465 4.249 3.944 4.249 2.784 0 4.271-2.116 4.271-4.443V67.727h16.294c1.334 0 2.354-.375 3.104-.917.67-.483 1.251-1.321 1.251-1.321 3.755-4.743 3.906-38.88-9.8-32.991zM62.5 57.889h-.015a4.92 4.92 0 0 0-4.919 4.919c0 .071.018.14.022.212a.512.512 0 0 0-.015.111v5.956l-18.47-10.616c-.129-.075-.748-.337-.924-.375a5.502 5.502 0 0 0-1.442-.207H25.915c.025-.578.04-1.16.059-1.741h47.291c.02.581.034 1.163.06 1.741H62.5z"></path><path d="M62.146 44.062v-1.883a7.533 7.533 0 0 0-7.533-7.534H44.441a7.534 7.534 0 0 0-7.534 7.534v1.883h25.239z"></path></g><!----></svg>