<svg data-v-d3f97b9e="" xmlns="http://www.w3.org/2000/svg" viewBox="0 0 77.55374891660489 60"><!----><!----><!----><!----><g data-v-d3f97b9e="" id="4833bf0d-acfe-4dc9-bf12-d5e0fd25d33c" transform="matrix(0.7908263849733815,0,0,0.7908263849733815,-0.46341316487200146,-13.24001277900912)" stroke="none" fill="white"><path d="M49.549 32.34c3.905 0 7.088-3.175 7.088-7.086 0-3.923-3.183-7.098-7.088-7.098a7.099 7.099 0 0 0-7.104 7.098c0 3.911 3.18 7.086 7.104 7.086zM72.376 71.68l12.562.002c.179.009 4.495.076 6.532-3.812 2.457-4.688 3.338-13.202 2.146-20.713a2.26 2.26 0 0 1 4.464-.709c1.126 7.087.757 17.104-2.605 23.52-3.113 5.943-9.298 6.236-10.438 6.236-.102 0-.163-.002-.18-.003h-12.48a2.261 2.261 0 0 1-.001-4.521zM74.458 30.926c-3.904 0-7.088-3.175-7.088-7.086 0-3.923 3.184-7.098 7.088-7.098a7.098 7.098 0 0 1 7.104 7.098c0 3.911-3.179 7.086-7.104 7.086zM26.862 71.68l-12.562.002c-.178.009-4.495.076-6.531-3.812-2.458-4.688-3.339-13.202-2.147-20.713a2.26 2.26 0 1 0-4.464-.709C.033 53.535.402 63.552 3.764 69.968c3.113 5.943 9.298 6.236 10.438 6.236.102 0 .164-.002.18-.003h12.48a2.26 2.26 0 0 0 0-4.521zM24.78 30.926c3.905 0 7.088-3.175 7.088-7.086 0-3.923-3.183-7.098-7.088-7.098a7.099 7.099 0 0 0-7.104 7.098c0 3.911 3.18 7.086 7.104 7.086z"></path><path d="M76.638 32.498s-2.994 1.196-3.066 8.3c-.121 1.019-.235 2.909-.31 5.264H59.471a3.075 3.075 0 0 0-3.074 3.079 3.074 3.074 0 0 0 2.505 3.022H40.338a3.074 3.074 0 0 0 2.504-3.022 3.074 3.074 0 0 0-3.074-3.079H25.977c-.073-2.355-.188-4.245-.309-5.264-.072-7.104-3.066-8.3-3.066-8.3C8.895 26.609 9.045 60.746 12.8 65.488c0 0 1.258 2.238 4.521 2.238H33.45v20.442c0 2.327 1.486 4.443 4.27 4.443 2.479 0 3.945-1.932 3.945-4.249V69.287l14.402 8.28c.479.274.988.466 1.507.576v10.22c0 2.317 1.465 4.249 3.944 4.249 2.784 0 4.271-2.116 4.271-4.443V67.727h16.294c1.334 0 2.354-.375 3.104-.917.67-.483 1.251-1.321 1.251-1.321 3.755-4.743 3.906-38.88-9.8-32.991zM62.5 57.889h-.015a4.92 4.92 0 0 0-4.919 4.919c0 .071.018.14.022.212a.512.512 0 0 0-.015.111v5.956l-18.47-10.616c-.129-.075-.748-.337-.924-.375a5.502 5.502 0 0 0-1.442-.207H25.915c.025-.578.04-1.16.059-1.741h47.291c.02.581.034 1.163.06 1.741H62.5z"></path><path d="M62.146 44.062v-1.883a7.533 7.533 0 0 0-7.533-7.534H44.441a7.534 7.534 0 0 0-7.534 7.534v1.883h25.239z"></path></g><!----></svg>